<svg width="256" height="256" viewBox="0 0 256 256" fill="none" xmlns="http://www.w3.org/2000/svg" role="img" aria-label="unwavr logo">
  <defs>
    <linearGradient id="g" x1="0" y1="0" x2="256" y2="256" gradientUnits="userSpaceOnUse">
      <stop offset="0" stop-color="#0EA5E9"/>
      <stop offset="1" stop-color="#8B5CF6"/>
    </linearGradient>
    <filter id="soft" x="-20%" y="-20%" width="140%" height="140%" color-interpolation-filters="sRGB">
      <feGaussianBlur in="SourceAlpha" stdDeviation="8" result="blur"/>
      <feColorMatrix in="blur" type="matrix" values="0 0 0 0 0   0 0 0 0 0   0 0 0 0 0   0 0 0 0.15 0"/>
      <feBlend in="SourceGraphic" mode="normal"/>
    </filter>
  </defs>
  <!-- rounded canvas ring -->
  <rect x="12" y="12" width="232" height="232" rx="56" stroke="url(#g)" stroke-width="8" fill="none"/>
  <!-- Monogram U (unwavr) -->
  <path filter="url(#soft)" d="M76 80c-6.627 0-12 5.373-12 12v60c0 33.137 26.863 60 60 60s60-26.863 60-60V92c0-6.627-5.373-12-12-12s-12 5.373-12 12v60c0 19.882-16.118 36-36 36s-36-16.118-36-36V92c0-6.627-5.373-12-12-12Z" fill="url(#g)"/>
  <!-- subtle wave inside the U -->
  <path d="M72 156c14 0 22-10 36-10s22 10 36 10 22-10 36-10" stroke="#ffffff" stroke-opacity="0.9" stroke-width="6" stroke-linecap="round" fill="none"/>
</svg>


